# xmcd CD database file
#
# Track frame offsets:
#	150
#	10600
#	21713
#	34500
#	45350
#	55913
#	65013
#	75150
#	86025
#	100925
#	112350
#	124688
#	137650
#	152200
#	162988
#	174075
#	187000
#	199175
#	209875
#	219513
#	240438
#	248263
#	259238
#	272300
#	282463
#
# Disc length: 3907 seconds
#
# Revision: 0
# Processed by: cddbd v1.5.1PL0 Copyright (c) Steve Scherf et al.
# Submitted via: CDex 1.51
#
DISCID=5f0f4119
DTITLE=Various Artist - Forgotten Feelings - 25 Country Classics
DYEAR=1900
DGENRE=Country
TTITLE0=Anna Marie
TTITLE1=Today I Started Loving You Again
TTITLE2=Don't Be Angry
TTITLE3=Funny Familiar Forgotten Feelings
TTITLE4=Seven Lonley Days
TTITLE5=According To My Heart
TTITLE6=Before The Next Teardrop Falls
TTITLE7=She Called Me Baby
TTITLE8=Shovelin' Coal Missouri
TTITLE9=I Can't Help It
TTITLE10=How Can I Tell My Dreams
TTITLE11=Shutters and Boards
TTITLE12=Careless Hands
TTITLE13=A Satisfied Mind
TTITLE14=She Even Woke Me Up To Say Goodbye
TTITLE15=There's Never Been A Time
TTITLE16=Wishful Thinking
TTITLE17=You Don't Have To Be A Baby To Cry
TTITLE18=In A Cotton Candy World
TTITLE19=Daddy
TTITLE20=Blue Boy
TTITLE21=Crazy Over You
TTITLE22=Sweeter Than The Flowers
TTITLE23=Making Plans
TTITLE24=I'm Starting To Go Steady With The Blues
EXTD=
EXTT0=
EXTT1=
EXTT2=
EXTT3=
EXTT4=
EXTT5=
EXTT6=
EXTT7=
EXTT8=
EXTT9=
EXTT10=
EXTT11=
EXTT12=
EXTT13=
EXTT14=
EXTT15=
EXTT16=
EXTT17=
EXTT18=
EXTT19=
EXTT20=
EXTT21=
EXTT22=
EXTT23=
EXTT24=
PLAYORDER=
